<?xml version="1.0" encoding="utf-8"?>
<!-- Generator: Adobe Illustrator 22.0.0, SVG Export Plug-In . SVG Version: 6.00 Build 0)  -->
<svg version="1.1" id="图层_1" xmlns="http://www.w3.org/2000/svg" xmlns:xlink="http://www.w3.org/1999/xlink" x="0px" y="0px"
	 viewBox="0 0 725.8 639.7" style="enable-background:new 0 0 725.8 639.7;" xml:space="preserve">
<style type="text/css">
	.st0{fill:#41464B;}
	.st1{fill:#1890FF;}
	.st2{fill:#B5CED5;}
	.st3{fill:#FFFFFF;}
	.st4{fill:#DDDDDD;}
	.st5{fill:#D3DCE1;}
	.st6{fill:#D2E1E6;}
	.st7{clip-path:url(#SVGID_2_);}
	.st8{fill:#E8E8E8;}
	.st9{fill:#D09E2B;}
	.st10{fill:#B4B6B6;}
	.st11{clip-path:url(#SVGID_4_);}
	.st12{clip-path:url(#SVGID_6_);}
</style>
<g>
	<g>
		<path class="st0" d="M211.9,144.7H103.4V72.4h36.2V36.2h36.2V0h72.3v108.5h36.2v36.2h-36.2v36.2h-36.2L211.9,144.7L211.9,144.7z
			 M175.7,36.2v36.2h-36.2v36.2h72.3V36.3L175.7,36.2L175.7,36.2z"/>
		<path class="st0" d="M356.6,144.7h-36.2V36.2h36.2V0h108.5v36.2h36.2v108.5h-36.2v36.2H356.6V144.7z M465.1,144.7V36.2H356.6
			v108.5H465.1z"/>
		<path class="st0" d="M573.6,72.3h-36.2V36.1h36.2V0h36.2v180.8h-36.2V72.3z"/>
	</g>
</g>
<path class="st1" d="M398.3,457.4h-2.7c-1.9,0-3.5-1.6-3.5-3.5v-66.7c0-1.9,1.6-3.5,3.5-3.5h2.7c1.9,0,3.5,1.6,3.5,3.5v66.7
	C401.8,455.8,400.2,457.4,398.3,457.4z"/>
<path class="st1" d="M421.1,422.7h-2c-1.5,0-2.7-1.2-2.7-2.7v-25c0-1.5,1.2-2.7,2.7-2.7h2c1.5,0,2.7,1.2,2.7,2.7v25.1
	C423.8,421.5,422.6,422.7,421.1,422.7z"/>
<path class="st1" d="M411.9,569h-0.7c-0.5,0-1-0.4-1-1v-94.4c0-0.5,0.4-1,1-1h0.7c0.5,0,1,0.4,1,1V568
	C412.9,568.5,412.5,569,411.9,569z"/>
<path class="st1" d="M385.9,639.7h-0.7c-0.5,0-1-0.4-1-1v-117c0-0.5,0.4-1,1-1h0.7c0.5,0,1,0.4,1,1v117
	C386.9,639.3,386.4,639.7,385.9,639.7z"/>
<path class="st1" d="M436.1,546.1h-0.7c-0.5,0-1-0.4-1-1v-52.2c0-0.5,0.4-1,1-1h0.7c0.5,0,1,0.4,1,1v52.2
	C437.1,545.7,436.7,546.1,436.1,546.1z"/>
<path class="st2" d="M633.6,184.5l-70,62.2l-41.9-77.9L506.6,149l-4.6,1.2l-1.8-8.1l-9.9,19.8l-6-9.2l-7.8,8.3l-2.5-2.5l-41.3,89.2
	L382,195.6L336.8,244l-34.5-65.3l-4.2,2.9l-6.9-14.1l-6.9,28.1l-9.2-11.5l-4.8,13.8L265,191l-5,1.5l-40.6,71.3l-41-48.4l-26.3,29.5
	L129.2,182l-12.2-7.9l-2.6,10.9l-11.6-16.4l-13.6,6.9L6.6,315.9c0,0,28.6-4.2,218.7-22.9c190.1-18.7,491.3,21.6,491.3,21.6
	L633.6,184.5z"/>
<ellipse class="st3" cx="362.9" cy="323.5" rx="362.9" ry="39.4"/>
<path class="st4" d="M362.9,362.9C162.5,362.9,0,345.3,0,323.5v47c0,19.5,162.5,32.6,362.9,32.6s362.9-13,362.9-32.4v-47.2
	C725.7,345.2,563.3,362.9,362.9,362.9z"/>
<path class="st5" d="M353.2,329.8c0,0-16.3-7.4-1-15.2c11.8-6,31-8.7,62.1-7s44.3,7.8,49.8,10.2c6.5,2.9,8.1,8.3,3.1,11.4
	C460.7,333.3,353.2,329.8,353.2,329.8z"/>
<path class="st1" d="M467.9,327.1c0,7.6-26.6,11.3-59.4,11.3s-59.4-6.1-59.4-13.7s26.6-13.7,59.4-13.7S467.9,319.6,467.9,327.1z"/>
<polygon class="st3" points="114.4,185.1 117,174.2 129.1,182 112.4,136.1 89.2,175.7 102.8,168.7 "/>
<polygon class="st3" points="270.3,197.9 275.1,184.1 284.3,195.6 291.2,167.5 298.1,181.5 302.3,178.6 285.7,147.2 259.9,192.4 
	265,191 "/>
<polygon class="st3" points="316.1,200.9 326.2,209.6 336.4,193.3 338,197.9 341,196.7 345.1,202.7 351.6,194.8 335.5,163.3 
	309.6,197.9 314.3,203.9 "/>
<polygon class="st3" points="484.3,152.7 490.3,161.9 500.2,142.1 502,150.2 506.6,149 521.7,168.8 493.5,116.3 474,158.5 
	476.5,161 "/>
<polygon class="st3" points="580.1,231.8 585.2,221.9 596,221.9 602.2,215.6 608.2,233.8 614.2,226 631.3,228.7 600.4,182.7 
	563.7,228.6 574.8,225.8 "/>
<polygon class="st3" points="433.4,197.9 443.4,182.7 452.3,184.5 461.2,180.8 474,184.5 492.2,201.5 452.5,140.8 413.9,193.6 
	430.3,189.7 "/>
<path class="st6" d="M631.3,228.7l-17-2.7l-6,7.8l-6-18.2l-6.2,6.2h-10.8l-5.1,9.9l-5.3-6l-11.1,2.8l-29.6,37l-41.9-64.1l-18.2-17
	l-12.7-3.7l-9,3.7l-8.9-1.8l-10,15.2l-3.1-8.2l-16.3,3.9l-37,50.8l-25.4-49.6l-6.4,7.9l-4.1-6l-3,1.2l-1.6-4.6l-10.1,16.4l-10.1-8.8
	l-1.9,3l-4.6-6L281.3,236l-44.7-34.6l-79.7,82.5l-41-73.7L45.7,311.3c3,0,5.9,0.1,8.9,0.1c70.8-7.7,171.6-12.5,283.4-12.5
	c153.7,0,286.6,9.1,349.4,22.2c4.2,0.1,6.3,0.1,6.3,0.1L631.3,228.7z"/>
<path class="st3" d="M385.3,333.6H373c-0.7,0-1.2-0.5-1.2-1.2v-0.9c0-0.7,0.5-1.2,1.2-1.2h12.3c0.7,0,1.2,0.5,1.2,1.2v0.9
	C386.5,333.1,386,333.6,385.3,333.6z"/>
<path class="st3" d="M401.6,328.7h-7.2c-0.7,0-1.2-0.5-1.2-1.2v-0.9c0-0.7,0.5-1.2,1.2-1.2h7.2c0.7,0,1.2,0.5,1.2,1.2v0.9
	C402.8,328.2,402.3,328.7,401.6,328.7z"/>
<path class="st3" d="M437.9,335.3h-22.5c-0.7,0-1.2-0.5-1.2-1.2v-0.9c0-0.7,0.5-1.2,1.2-1.2h22.5c0.7,0,1.2,0.5,1.2,1.2v0.9
	C439.2,334.8,438.6,335.3,437.9,335.3z"/>
<g>
	<circle class="st1" cx="445.1" cy="248.4" r="22.8"/>
	<circle class="st1" cx="431.8" cy="279.9" r="7.1"/>
	<g>
		<path class="st3" d="M447.7,258c0.5,0.4,0.7,1,0.7,1.8c0,0.7-0.2,1.3-0.7,1.8s-1.1,0.7-1.8,0.7c-0.7,0-1.3-0.2-1.8-0.7
			s-0.8-1.1-0.8-1.8c0-0.7,0.3-1.3,0.8-1.8s1-0.7,1.8-0.7C446.6,257.3,447.2,257.6,447.7,258z M443.7,237.7h4.3l-0.8,17.6h-2.7
			L443.7,237.7z"/>
	</g>
</g>
<g>
	<g>
		<defs>
			<path id="SVGID_1_" d="M334.1,303.8c0,0.8,9.4,22,24.6,24.1c15.3,2.1,25.4-3.2,26.1-3.2s4.6-22-2.8-25.4
				C374.7,295.8,334.1,303.8,334.1,303.8z"/>
		</defs>
		<clipPath id="SVGID_2_">
			<use xlink:href="#SVGID_1_"  style="overflow:visible;"/>
		</clipPath>
		<g class="st7">
			<path class="st0" d="M351.4,336.8h19.2c0.1,0,0.1-0.1,0.1-0.1v-24.2c0-5.1-3.1-9.8-8.2-9.8l-6.6,0.6c-2.5,0-4.6,2.1-4.6,4.6v28.9
				H351.4z"/>
			<circle class="st3" cx="359.9" cy="308.1" r="1.7"/>
			<path class="st8" d="M351.4,313.2c5.8,0.5,9.7,4.2,9.7,10.3s-3.9,12.4-9.7,13.3V313.2z"/>
			<polygon class="st9" points="344.2,308.7 352.9,304.6 352.9,312.8 			"/>
			<path class="st0" d="M370.8,318.2l8.8,6.1c0.3,0.2,0.2,0.7-0.2,0.8l-8.6,1.1L370.8,318.2L370.8,318.2z"/>
			<polygon class="st0" points="372.8,336.8 374.1,338.1 351.4,338.1 351.4,336.8 			"/>
			<rect x="349.3" y="336.8" class="st10" width="2.1" height="1.3"/>
		</g>
	</g>
</g>
<g>
	<g>
		<defs>
			<path id="SVGID_3_" d="M471.5,324.2c0,0-7.2,5.9-16.4,4.3c-9.2-1.6-29.9-0.1-33.4-6.4s-4.3-20.4-1.8-21.2
				C422.3,300,477.3,313.2,471.5,324.2z"/>
		</defs>
		<clipPath id="SVGID_4_">
			<use xlink:href="#SVGID_3_"  style="overflow:visible;"/>
		</clipPath>
		<g class="st11">
			<path class="st0" d="M454,346h-19.2c-0.1,0-0.1-0.1-0.1-0.1v-24.2c0-5.1,3.1-9.8,8.2-9.8l6.6,0.6c2.5,0,4.6,2.1,4.6,4.6V346H454z
				"/>
			<circle class="st3" cx="445.5" cy="317.3" r="1.7"/>
			<path class="st8" d="M454,322.4c-5.8,0.5-9.7,4.2-9.7,10.3s3.9,12.4,9.7,13.3V322.4z"/>
			<polygon class="st9" points="461.2,317.9 452.5,313.8 452.5,322 			"/>
			<path class="st0" d="M434.6,327.4l-8.8,6.1c-0.3,0.2-0.2,0.7,0.2,0.8l8.6,1.1L434.6,327.4L434.6,327.4z"/>
			<polygon class="st0" points="432.6,346 431.3,347.3 454,347.3 454,346 			"/>
			<rect x="454" y="346" class="st10" width="2.1" height="1.3"/>
		</g>
	</g>
</g>
<g>
	<g>
		<defs>
			<path id="SVGID_5_" d="M385.1,312.1c0,0,12,7.5,20.8,8.3s22.3-3.5,26.7-7c4.4-3.5,0.7-24.7-1.7-25.9s-30-12.7-42.5-1.3
				C375.9,297.7,385.1,312.1,385.1,312.1z"/>
		</defs>
		<clipPath id="SVGID_6_">
			<use xlink:href="#SVGID_5_"  style="overflow:visible;"/>
		</clipPath>
		<g class="st12">
			<path class="st0" d="M419.5,329.8h-19.2c-0.1,0-0.1-0.1-0.1-0.1v-24.2c0-5.1,3.1-9.8,8.2-9.8l6.6,0.6c2.5,0,4.6,2.1,4.6,4.6v28.9
				H419.5z"/>
			<circle class="st3" cx="411" cy="301.1" r="1.7"/>
			<path class="st8" d="M419.5,306.2c-5.8,0.5-9.7,4.2-9.7,10.3s3.9,12.4,9.7,13.3V306.2z"/>
			<polygon class="st9" points="426.7,301.7 418,297.6 418,305.8 			"/>
			<path class="st0" d="M400.1,311.2l-8.8,6.1c-0.3,0.2-0.2,0.7,0.2,0.8l8.6,1.1L400.1,311.2L400.1,311.2z"/>
			<polygon class="st0" points="398.1,329.8 396.8,331.1 419.5,331.1 419.5,329.8 			"/>
			<rect x="419.5" y="329.8" class="st10" width="2.1" height="1.3"/>
		</g>
	</g>
</g>
</svg>
