<?xml version="1.0" encoding="utf-8"?>
<!-- Generator: Adobe Illustrator 22.0.0, SVG Export Plug-In . SVG Version: 6.00 Build 0)  -->
<svg version="1.1" id="图层_1" xmlns="http://www.w3.org/2000/svg" xmlns:xlink="http://www.w3.org/1999/xlink" x="0px" y="0px"
	 viewBox="0 0 725.8 653.5" style="enable-background:new 0 0 725.8 653.5;" xml:space="preserve">
<style type="text/css">
	.st0{fill:#41464B;}
	.st1{fill:#1890FF;}
	.st2{fill:#B5CED5;}
	.st3{fill:#FFFFFF;}
	.st4{fill:#DDDDDD;}
	.st5{fill:#D3DCE1;}
	.st6{fill:#D2E1E6;}
	.st7{fill:#E8E8E8;}
	.st8{fill:#D09E2B;}
	.st9{fill:#B4B6B6;}
	.st10{fill:#F0F2F5;stroke:#231815;stroke-width:2;stroke-miterlimit:10;}
</style>
<g>
	<g>
		<path class="st0" d="M170.2,144.7H61.7V72.3h36.2V36.2h36.2V0h72.3v108.5h36.2v36.2h-36.2v36.2h-36.2V144.7z M134,36.2v36.2H97.8
			v36.2h72.3V36.2H134z"/>
		<path class="st0" d="M314.9,144.7h-36.2V36.2h36.2V0h108.5v36.2h36.2v108.5h-36.2v36.2H314.9V144.7z M423.4,144.7V36.2H314.9
			v108.5H423.4z"/>
		<path class="st0" d="M640.4,0v36.2H495.7V0H640.4z M640.4,144.7v36.2H495.7v-36.2H640.4z M640.4,72.3v36.2H531.9V72.3H640.4z
			 M676.5,72.3h-36.2V36.2h36.2V72.3z M676.5,144.7h-36.2v-36.2h36.2V144.7z"/>
	</g>
</g>
<path class="st1" d="M398.3,457.4h-2.7c-1.9,0-3.5-1.6-3.5-3.5v-66.7c0-1.9,1.6-3.5,3.5-3.5h2.7c1.9,0,3.5,1.6,3.5,3.5v66.7
	C401.8,455.8,400.2,457.4,398.3,457.4z"/>
<path class="st1" d="M421.1,422.7h-2c-1.5,0-2.7-1.2-2.7-2.7v-25c0-1.5,1.2-2.7,2.7-2.7h2c1.5,0,2.7,1.2,2.7,2.7v25
	C423.8,421.5,422.6,422.7,421.1,422.7z"/>
<path class="st1" d="M411.9,569h-0.7c-0.5,0-1-0.4-1-1v-94.4c0-0.5,0.4-1,1-1h0.7c0.5,0,1,0.4,1,1V568
	C412.9,568.5,412.5,569,411.9,569z"/>
<path class="st1" d="M424.9,542.4h-0.7c-0.5,0-1-0.4-1-1v-52.2c0-0.5,0.4-1,1-1h0.7c0.5,0,1,0.4,1,1v52.2
	C425.9,542,425.5,542.4,424.9,542.4z"/>
<path class="st2" d="M633.6,184.5l-70,62.2l-41.9-77.9L506.6,149l-4.6,1.2l-1.8-8.1l-9.9,19.8l-6-9.2l-7.8,8.3l-2.5-2.5l-41.3,89.2
	L382,195.6L336.8,244l-34.5-65.3l-4.2,2.9l-6.9-14.1l-6.9,28.1l-9.2-11.5l-4.8,13.8L265,191l-5,1.5l-40.6,71.3l-41-48.4l-26.3,29.5
	L129.2,182l-12.2-7.9l-2.6,10.9l-11.6-16.4l-13.6,6.9L6.7,315.7c0,0,28.6-4.2,218.7-22.9c190.1-18.7,491.3,21.6,491.3,21.6
	L633.6,184.5z"/>
<ellipse class="st3" cx="362.9" cy="323.5" rx="362.9" ry="39.4"/>
<path class="st4" d="M362.9,362.9C162.5,362.9,0,345.3,0,323.5v47c0,19.5,162.5,32.6,362.9,32.6s362.9-13,362.9-32.4v-47.2
	C725.7,345.2,563.3,362.9,362.9,362.9z"/>
<path class="st5" d="M353.2,329.8c0,0-16.3-7.4-1-15.2c11.8-6,31-8.7,62.1-7s44.3,7.8,49.8,10.2c6.5,2.9,8.1,8.3,3.1,11.4
	C460.7,333.3,353.2,329.8,353.2,329.8z"/>
<path class="st1" d="M467.9,327.1c0,7.6-26.6,11.3-59.4,11.3s-59.4-6.1-59.4-13.7s26.6-13.7,59.4-13.7S467.9,319.6,467.9,327.1z"/>
<polygon class="st3" points="114.4,185.1 117,174.2 129.1,182 112.4,136.1 89.2,175.7 102.8,168.7 "/>
<polygon class="st3" points="270.3,197.9 275.1,184.1 284.3,195.6 291.2,167.5 298.1,181.5 302.3,178.6 285.7,147.2 259.9,192.4 
	265,191 "/>
<polygon class="st3" points="316.1,200.9 326.2,209.6 336.4,193.3 338,197.9 341,196.7 345.1,202.7 351.6,194.8 335.5,163.3 
	309.6,197.9 314.3,203.9 "/>
<polygon class="st3" points="484.3,152.7 490.3,161.9 500.2,142.1 502,150.2 506.6,149 521.7,168.8 493.5,116.3 474,158.5 
	476.5,161 "/>
<polygon class="st3" points="580.1,231.8 585.2,221.9 596,221.9 602.2,215.6 608.2,233.8 614.2,226 631.3,228.7 600.4,182.7 
	563.7,228.6 574.8,225.8 "/>
<polygon class="st3" points="433.4,197.9 443.4,182.7 452.3,184.5 461.2,180.8 474,184.5 492.2,201.5 452.5,140.8 413.9,193.6 
	430.3,189.7 "/>
<path class="st6" d="M631.3,228.7l-17-2.7l-6,7.8l-6-18.2l-6.2,6.2h-10.8l-5.1,9.9l-5.3-6l-11.1,2.8l-29.6,37l-41.9-64.1l-18.2-17
	l-12.7-3.7l-9,3.7l-8.9-1.8l-10,15.2l-3.1-8.2l-16.3,3.9l-37,50.8l-25.4-49.6l-6.4,7.9l-4.1-6l-3,1.2l-1.6-4.6l-10.1,16.4l-10.1-8.8
	l-1.9,3l-4.6-6L281.3,236l-44.7-34.6l-79.7,82.5l-41-73.7L45.7,311.3c3,0,5.9,0.1,8.9,0.1c70.8-7.7,171.6-12.5,283.4-12.5
	c153.7,0,286.6,9.1,349.4,22.2c4.2,0.1,6.3,0.1,6.3,0.1L631.3,228.7z"/>
<g>
	<path class="st0" d="M317.6,319.1h-19.2c-0.1,0-0.1-0.1-0.1-0.1v-24.2c0-5.1,3.1-9.8,8.2-9.8l6.6,0.6c2.5,0,4.6,2.1,4.6,4.6v28.9
		H317.6z"/>
	<circle class="st3" cx="309.1" cy="290.4" r="1.7"/>
	<path class="st7" d="M317.6,295.5c-5.8,0.5-9.7,4.2-9.7,10.3s3.9,12.4,9.7,13.3V295.5z"/>
	<polygon class="st8" points="324.8,291 316.1,286.9 316.1,295.1 	"/>
	<path class="st0" d="M298.2,300.5l-8.8,6.1c-0.3,0.2-0.2,0.7,0.2,0.8l8.6,1.1V300.5z"/>
	<polygon class="st0" points="296.2,319.1 294.9,320.4 317.6,320.4 317.6,319.1 	"/>
	<rect x="317.6" y="319.1" class="st9" width="2.1" height="1.3"/>
</g>
<g>
	<path class="st0" d="M270.5,342.6h-19.2c-0.1,0-0.1-0.1-0.1-0.1v-24.2c0-5.1,3.1-9.8,8.2-9.8l6.6,0.6c2.5,0,4.6,2.1,4.6,4.6v28.9
		H270.5z"/>
	<circle class="st3" cx="262" cy="313.8" r="1.7"/>
	<path class="st7" d="M270.5,318.9c-5.8,0.5-9.7,4.2-9.7,10.3s3.9,12.4,9.7,13.3V318.9z"/>
	<polygon class="st8" points="277.7,314.4 269,310.3 269,318.5 	"/>
	<path class="st0" d="M251.2,323.9l-8.8,6.1c-0.3,0.2-0.2,0.7,0.2,0.8l8.6,1.1V323.9z"/>
	<polygon class="st0" points="249.1,342.6 247.8,343.9 270.5,343.9 270.5,342.6 	"/>
	<rect x="270.5" y="342.6" class="st9" width="2.1" height="1.3"/>
</g>
<g>
	<path class="st0" d="M511.1,347.2h19.2c0.1,0,0.1-0.1,0.1-0.1v-24.2c0-5.1-3.1-9.8-8.2-9.8l-6.6,0.6c-2.5,0-4.6,2.1-4.6,4.6v28.9
		H511.1z"/>
	<circle class="st3" cx="519.6" cy="318.5" r="1.7"/>
	<path class="st7" d="M511.1,323.6c5.8,0.5,9.7,4.2,9.7,10.3s-3.9,12.4-9.7,13.3V323.6z"/>
	<polygon class="st8" points="503.9,319.1 512.6,315 512.6,323.2 	"/>
	<path class="st0" d="M530.5,328.6l8.8,6.1c0.3,0.2,0.2,0.7-0.2,0.8l-8.6,1.1V328.6z"/>
	<polygon class="st0" points="532.5,347.2 533.8,348.5 511.1,348.5 511.1,347.2 	"/>
	<rect x="509" y="347.2" class="st9" width="2.1" height="1.3"/>
</g>
<path class="st3" d="M392.1,324.7h-12.3c-0.7,0-1.2-0.5-1.2-1.2v-0.9c0-0.7,0.5-1.2,1.2-1.2h12.3c0.7,0,1.2,0.5,1.2,1.2v0.9
	C393.3,324.2,392.7,324.7,392.1,324.7z"/>
<path class="st3" d="M411.5,331.3h-7.2c-0.7,0-1.2-0.5-1.2-1.2v-0.9c0-0.7,0.5-1.2,1.2-1.2h7.2c0.7,0,1.2,0.5,1.2,1.2v0.9
	C412.7,330.7,412.2,331.3,411.5,331.3z"/>
<path class="st3" d="M434.3,322.1h-22.5c-0.7,0-1.2-0.5-1.2-1.2V320c0-0.7,0.5-1.2,1.2-1.2h22.5c0.7,0,1.2,0.5,1.2,1.2v0.9
	C435.5,321.5,434.9,322.1,434.3,322.1z"/>
<g>
	<g>
		<g>
			<g>
				<path class="st1" d="M408.9,617.4l9.2,27.5c0.7,2.1,3,3.3,5.1,2.5l11.4-3.8c2.1-0.7,3.3-3,2.5-5.1l-8-23.6
					c-0.7-2.1-3-3.3-5.1-2.5L408.9,617.4z"/>
			</g>
			<g>
				<circle class="st1" cx="403" cy="614.4" r="12"/>
			</g>
			<circle class="st3" cx="405.4" cy="610.8" r="3"/>
			<path class="st3" d="M422.9,623.4c-0.6,0-1.2-0.1-1.8-0.4c-1-0.5-1.7-1.3-2-2.3s-0.3-2.1,0.2-3.1s1.3-1.7,2.3-2s2.1-0.3,3.1,0.2
				l0,0c2,1,2.8,3.4,1.8,5.4C425.8,622.6,424.3,623.4,422.9,623.4z M422.9,617.4c-0.2,0-0.4,0-0.6,0.1c-0.5,0.2-0.9,0.5-1.2,1
				c-0.5,1-0.1,2.2,0.9,2.7s2.2,0.1,2.7-0.9s0.1-2.2-0.9-2.7l0,0C423.5,617.5,423.2,617.4,422.9,617.4z"/>
			<g>
				<polyline class="st1" points="403,625.5 399.8,631.8 395.8,633.2 397.2,637.2 393.2,638.6 394.5,642.6 390.5,643.9 391.8,648 
					390.5,650.6 383.8,652.9 381.6,646.2 393.8,621.5 				"/>
				<polygon class="st1" points="383.5,653.5 381,646.2 393.4,621.3 394.3,621.7 382.1,646.2 384.1,652.3 390.2,650.2 391.3,647.9 
					389.9,643.6 393.9,642.3 392.5,638.2 396.5,636.9 395.2,632.9 399.5,631.4 402.5,625.2 403.4,625.7 400.2,632.2 396.5,633.5 
					397.8,637.5 393.8,638.9 395.1,642.9 391.1,644.3 392.4,648 390.9,651.1 				"/>
			</g>
			<path class="st3" d="M423,642.6c-0.9,0-1.7-0.6-2-1.5l-3.9-11.5c-0.4-1.2,0.2-2.4,1.4-2.8l7.2-2.4c1.2-0.4,2.4,0.2,2.8,1.4
				l3.9,11.5c0.3,1-0.2,2.3-1.3,2.7H431l-7.2,2.4C423.5,642.6,423.2,642.6,423,642.6z M426.4,626.3h-0.1l-7.2,2.4
				c-0.1,0-0.2,0.1-0.1,0.3l3.9,11.5c0,0.1,0.1,0.2,0.3,0.1l7.2-2.4c0.1-0.1,0.2-0.2,0.2-0.3l-3.9-11.5
				C426.5,626.3,426.5,626.3,426.4,626.3z"/>
			<path class="st1" d="M424.1,617.2l-0.9-0.4c2.2-4.4,0.4-9.9-4.1-12.1c-4.7-2.3-9.4-1.1-11.5,3.1l-0.9-0.4
				c2.3-4.6,7.7-6.1,12.9-3.6C424.5,606.3,426.5,612.3,424.1,617.2z"/>
			<polygon class="st3" points="383.3,652.9 382.8,651.5 393.8,629.6 394.7,630 			"/>
		</g>
	</g>
</g>
<g>
	<circle class="st1" cx="282.7" cy="261.9" r="22.8"/>
	<circle class="st1" cx="269.4" cy="293.4" r="7.1"/>
	<g>
		<path class="st3" d="M294.2,255.2c-1.3,1.5-2.4,2.8-3.1,3.8c-0.8,1.1-2,2.8-3.7,4.9c1.1,1.5,2.1,3,3.2,4.4
			c1.3,1.7,2.4,3.2,3.4,4.3c0.4,0.4,0.6,0.9,0.6,1.4c0,0.6-0.2,1.1-0.6,1.5s-0.9,0.6-1.5,0.6c-1,0-2.3-1.2-3.9-3.5
			c-0.4-0.7-1.1-1.7-2-3c-0.4-0.6-1.1-1.5-1.9-2.6c-1.2,1.4-2.8,3.1-4.7,5.2c-0.6,0.7-1.5,1.7-2.8,3c-0.4,0.4-1,0.6-1.5,0.6
			c-0.6,0-1.1-0.2-1.5-0.6s-0.7-0.9-0.7-1.5c0-0.5,0.2-0.9,0.5-1.3c0.6-0.6,1.5-1.6,2.8-2.9c1.3-1.4,3.1-3.4,5.4-5.9
			c-1-1.3-2.1-2.6-3.2-3.9c-0.1-0.1-0.7-0.8-1.7-2.2c-0.7-0.9-1.3-1.6-1.9-2c-0.6-0.5-0.9-1-0.9-1.6c0-0.5,0.2-1,0.6-1.5
			c0.4-0.4,0.9-0.6,1.5-0.6c0.5,0,1.3,0.4,2.2,1.2c0.6,0.6,1.2,1.1,1.6,1.7c0.4,0.6,1.1,1.4,1.9,2.5c1,1.1,1.9,2.2,2.8,3.4
			c1.3-1.7,2.5-3.4,3.8-5c2-2.4,3.3-3.6,4-3.6c0.6,0,1.1,0.2,1.5,0.6s0.7,0.9,0.7,1.5C294.7,254.3,294.6,254.8,294.2,255.2z"/>
	</g>
</g>
<path class="st10" d="M386.1,638.4"/>
</svg>
