<?xml version="1.0" encoding="utf-8"?>
<!-- Generator: Adobe Illustrator 22.0.0, SVG Export Plug-In . SVG Version: 6.00 Build 0)  -->
<svg version="1.1" id="图层_1" xmlns="http://www.w3.org/2000/svg" xmlns:xlink="http://www.w3.org/1999/xlink" x="0px" y="0px"
	 viewBox="0 0 725.8 627.8" style="enable-background:new 0 0 725.8 627.8;" xml:space="preserve">
<style type="text/css">
	.st0{fill:#41464B;}
	.st1{fill:#1890FF;}
	.st2{fill:#B5CED5;}
	.st3{fill:#FFFFFF;}
	.st4{fill:#DDDDDD;}
	.st5{fill:#D3DCE1;}
	.st6{fill:#D2E1E6;}
	.st7{fill:#D09E2B;}
	.st8{clip-path:url(#SVGID_2_);}
</style>
<g>
	<g>
		<path class="st0" d="M206.4,72.3v36.2H61.7V0h180.8v36.2H97.8v36.2L206.4,72.3L206.4,72.3z M61.7,180.8v-36.2h144.7v36.2H61.7z
			 M242.5,144.7h-36.2v-36.2h36.2V144.7z"/>
		<path class="st0" d="M314.9,144.7h-36.2V36.2h36.2V0h108.5v36.2h36.2v108.5h-36.2v36.2H314.9V144.7z M423.4,144.7V36.2H314.9
			v108.5H423.4z"/>
		<path class="st0" d="M531.9,144.7h-36.2V36.2h36.2V0h108.5v36.2h36.2v108.5h-36.2v36.2H531.9V144.7z M640.4,144.7V36.2H531.9
			v108.5H640.4z"/>
	</g>
</g>
<path class="st1" d="M398.3,457.4h-2.7c-1.9,0-3.5-1.6-3.5-3.5v-66.7c0-1.9,1.6-3.5,3.5-3.5h2.7c1.9,0,3.5,1.6,3.5,3.5v66.7
	C401.8,455.8,400.2,457.4,398.3,457.4z"/>
<path class="st1" d="M421.1,422.7h-2c-1.5,0-2.7-1.2-2.7-2.7v-25c0-1.5,1.2-2.7,2.7-2.7h2c1.5,0,2.7,1.2,2.7,2.7v25
	C423.8,421.5,422.6,422.7,421.1,422.7z"/>
<path class="st1" d="M413,553.7h-0.7c-0.5,0-1-0.4-1-1v-36.6c0-0.5,0.4-1,1-1h0.7c0.5,0,1,0.4,1,1v36.6
	C414,553.3,413.5,553.7,413,553.7z"/>
<path class="st1" d="M426,543.1h-0.7c-0.5,0-1-0.4-1-1v-19.7c0-0.5,0.4-1,1-1h0.7c0.5,0,1,0.4,1,1v19.7
	C427,542.7,426.5,543.1,426,543.1z"/>
<path class="st2" d="M633.6,184.5l-70,62.2l-41.9-77.9L506.6,149l-4.6,1.2l-1.8-8.1l-9.9,19.8l-6-9.2l-7.8,8.3l-2.5-2.5l-41.3,89.2
	L382,195.6L336.8,244l-34.5-65.3l-4.2,2.9l-6.9-14.1l-6.9,28.1l-9.2-11.5l-4.8,13.8L265,191l-5,1.5l-40.6,71.3l-41-48.4l-26.3,29.5
	L129.2,182l-12.2-7.9l-2.6,10.9l-11.6-16.4l-13.6,6.9L6.7,315.7c0,0,28.6-4.2,218.7-22.9c190.1-18.7,491.3,21.6,491.3,21.6
	L633.6,184.5z"/>
<ellipse class="st3" cx="362.9" cy="323.5" rx="362.9" ry="39.4"/>
<path class="st4" d="M362.9,362.9C162.5,362.9,0,345.3,0,323.5v47c0,19.5,162.5,32.6,362.9,32.6s362.9-13,362.9-32.4v-47.2
	C725.7,345.2,563.3,362.9,362.9,362.9z"/>
<path class="st5" d="M353.2,329.8c0,0-16.3-7.4-1-15.2c11.8-6,31-8.7,62.1-7s44.3,7.8,49.8,10.2c6.5,2.9,8.1,8.3,3.1,11.4
	C460.7,333.3,353.2,329.8,353.2,329.8z"/>
<path class="st1" d="M467.9,327.1c0,7.6-26.6,11.3-59.4,11.3s-59.4-6.1-59.4-13.7s26.6-13.7,59.4-13.7S467.9,319.6,467.9,327.1z"/>
<polygon class="st3" points="270.3,197.9 275.1,184.1 284.3,195.6 291.2,167.5 298.1,181.5 302.3,178.6 285.7,147.2 259.9,192.4 
	265,191 "/>
<polygon class="st3" points="316.1,200.9 326.2,209.6 336.4,193.3 338,197.9 341,196.7 345.1,202.7 351.6,194.8 335.5,163.3 
	309.6,197.9 314.3,203.9 "/>
<polygon class="st3" points="484.3,152.7 490.3,161.9 500.2,142.1 502,150.2 506.6,149 521.7,168.8 493.5,116.3 474,158.5 
	476.5,161 "/>
<polygon class="st3" points="580.1,231.8 585.2,221.9 596,221.9 602.2,215.6 608.2,233.8 614.2,226 631.3,228.7 600.4,182.7 
	563.7,228.6 574.8,225.8 "/>
<polygon class="st3" points="433.4,197.9 443.4,182.7 452.3,184.5 461.2,180.8 474,184.5 492.2,201.5 452.5,140.8 413.9,193.6 
	430.3,189.7 "/>
<path class="st6" d="M631.3,228.7l-17-2.7l-6,7.8l-6-18.2l-6.2,6.2h-10.8l-5.1,9.9l-5.3-6l-11.1,2.8l-29.6,37l-41.9-64.1l-18.2-17
	l-12.7-3.7l-9,3.7l-8.9-1.8l-10,15.2l-3.1-8.2l-16.3,3.9l-37,50.8l-25.4-49.6l-6.4,7.9l-4.1-6l-3,1.2l-1.6-4.6l-10.1,16.4l-10.1-8.8
	l-1.9,3l-4.6-6L281.3,236l-44.7-34.6l-79.7,82.5l-41-73.7L45.7,311.3c3,0,5.9,0.1,8.9,0.1c70.8-7.7,171.6-12.5,283.4-12.5
	c153.7,0,286.6,9.1,349.4,22.2c4.2,0.1,6.3,0.1,6.3,0.1L631.3,228.7z"/>
<path class="st3" d="M382.5,332.2h-11.4c-0.9,0-1.7-0.7-1.7-1.7l0,0c0-0.9,0.7-1.7,1.7-1.7h11.4c0.9,0,1.7,0.7,1.7,1.7l0,0
	C384.2,331.5,383.5,332.2,382.5,332.2z"/>
<path class="st3" d="M418.5,336.1h-4.6c-0.5,0-1-0.4-1-1l0,0c0-0.5,0.4-1,1-1h4.6c0.5,0,1,0.4,1,1l0,0
	C419.4,335.7,419,336.1,418.5,336.1z"/>
<path class="st3" d="M458.3,327.9h-21.6c-0.9,0-1.7-0.7-1.7-1.7l0,0c0-0.9,0.7-1.7,1.7-1.7h21.6c0.9,0,1.7,0.7,1.7,1.7l0,0
	C460,327.2,459.3,327.9,458.3,327.9z"/>
<path class="st3" d="M441.8,320.5H421c-0.4,0-0.8-0.4-0.8-0.8l0,0c0-0.4,0.4-0.8,0.8-0.8h20.8c0.4,0,0.8,0.4,0.8,0.8l0,0
	C442.6,320.1,442.2,320.5,441.8,320.5z"/>
<circle class="st1" cx="451.5" cy="257.8" r="22.8"/>
<circle class="st1" cx="438.2" cy="289.2" r="7.1"/>
<g>
	<path class="st3" d="M441.5,257.2c0.5,0.4,0.7,1,0.7,1.8c0,0.7-0.2,1.3-0.7,1.8s-1.1,0.7-1.8,0.7s-1.3-0.2-1.8-0.7
		s-0.8-1.1-0.8-1.8c0-0.7,0.3-1.3,0.8-1.8s1-0.7,1.8-0.7S441.1,256.7,441.5,257.2z M453,257.2c0.5,0.4,0.7,1,0.7,1.8
		c0,0.7-0.2,1.3-0.7,1.8s-1.1,0.7-1.8,0.7c-0.7,0-1.3-0.2-1.8-0.7s-0.8-1.1-0.8-1.8c0-0.7,0.3-1.3,0.8-1.8s1-0.7,1.8-0.7
		S452.6,256.7,453,257.2z M464.5,257.2c0.5,0.4,0.7,1,0.7,1.8c0,0.7-0.3,1.3-0.8,1.8s-1.1,0.7-1.8,0.7c-0.7,0-1.3-0.2-1.8-0.7
		s-0.7-1.1-0.7-1.8c0-0.7,0.2-1.3,0.7-1.8s1.1-0.7,1.8-0.7C463.4,256.5,464,256.7,464.5,257.2z"/>
</g>
<g>
	<path class="st0" d="M397.2,578.2c0,0-5.8,0-5.2,0c2.1,2.4,5.2,11.7,5.2,11.7V578.2z"/>
	<path class="st0" d="M419.8,578.2c0,0,5.8,0,5.2,0c-2.1,2.4-5.2,11.7-5.2,11.7V578.2z"/>
	<path class="st0" d="M397.2,589.1h-8.7c-0.2,0-0.3,0.2-0.1,0.3l8.8,7.7L397.2,589.1L397.2,589.1z"/>
	<path class="st0" d="M419.8,589.1h8.7c0.2,0,0.3,0.2,0.1,0.3l-8.8,7.7L419.8,589.1L419.8,589.1z"/>
	<path class="st0" d="M419.8,614.5v-36.3h-22.6v36.3l0,0c2.2,3.5,6.4,5.9,11.3,5.9C413.4,620.4,417.6,618,419.8,614.5L419.8,614.5z"
		/>
	<path class="st3" d="M407.4,616.9h-1.5c-0.2,0-0.3-0.1-0.3-0.3v-2.9c0-0.2,0.1-0.3,0.3-0.3h1.5c0.2,0,0.3,0.1,0.3,0.3v2.9
		C407.7,616.8,407.6,616.9,407.4,616.9z"/>
	<path class="st3" d="M413,616.9h-1.5c-0.2,0-0.3-0.1-0.3-0.3v-2.9c0-0.2,0.1-0.3,0.3-0.3h1.5c0.2,0,0.3,0.1,0.3,0.3v2.9
		C413.3,616.8,413.2,616.9,413,616.9z"/>
	<path class="st7" d="M408.8,627.6l-3.9-8.6c0,0,3.3,0.1,4.3,0.1c1.1,0,4.1-0.1,4.1-0.1l-3.9,8.6
		C409.3,627.8,408.9,627.8,408.8,627.6z"/>
	<path class="st7" d="M416.8,573.5c-2.9,0-5.2,2.1-5.2,4.8H422C422,575.6,419.7,573.5,416.8,573.5z"/>
	<path class="st7" d="M401.9,573.5c-2.9,0-5.2,2.1-5.2,4.8h10.4C407.1,575.6,404.8,573.5,401.9,573.5z"/>
</g>
<g>
	<path class="st0" d="M420,455.2c0,0-5.8,0-5.2,0c2.1,2.4,5.2,11.7,5.2,11.7V455.2z"/>
	<path class="st0" d="M442.6,455.2c0,0,5.8,0,5.2,0c-2.1,2.4-5.2,11.7-5.2,11.7V455.2z"/>
	<path class="st0" d="M420,466h-8.7c-0.2,0-0.3,0.2-0.1,0.3l8.8,7.7L420,466L420,466z"/>
	<path class="st0" d="M442.6,466h8.7c0.2,0,0.3,0.2,0.1,0.3l-8.8,7.7L442.6,466L442.6,466z"/>
	<path class="st0" d="M442.6,491.5v-36.3H420v36.3l0,0c2.2,3.5,6.4,5.9,11.3,5.9S440.4,495,442.6,491.5L442.6,491.5z"/>
	<path class="st3" d="M430.2,493.9h-1.5c-0.2,0-0.3-0.1-0.3-0.3v-2.9c0-0.2,0.1-0.3,0.3-0.3h1.5c0.2,0,0.3,0.1,0.3,0.3v2.9
		C430.5,493.8,430.4,493.9,430.2,493.9z"/>
	<path class="st3" d="M435.8,493.9h-1.5c-0.2,0-0.3-0.1-0.3-0.3v-2.9c0-0.2,0.1-0.3,0.3-0.3h1.5c0.2,0,0.3,0.1,0.3,0.3v2.9
		C436.1,493.8,436,493.9,435.8,493.9z"/>
	<path class="st7" d="M431.6,504.5l-3.9-8.6c0,0,3.3,0.1,4.3,0.1c1.1,0,4.1-0.1,4.1-0.1l-3.9,8.6
		C432.1,504.8,431.7,504.8,431.6,504.5z"/>
	<path class="st7" d="M439.6,450.4c-2.9,0-5.2,2.1-5.2,4.8h10.4C444.8,452.6,442.5,450.4,439.6,450.4z"/>
	<path class="st7" d="M424.7,450.4c-2.9,0-5.2,2.1-5.2,4.8h10.4C429.9,452.6,427.6,450.4,424.7,450.4z"/>
</g>
<g>
	<g>
		<defs>
			<path id="SVGID_1_" d="M467.4,308.1c0,7.6-26,21.9-58.9,21.9s-60-16.7-60-24.3c0-7.6,26.6-13.7,59.4-13.7
				S467.4,300.6,467.4,308.1z"/>
		</defs>
		<clipPath id="SVGID_2_">
			<use xlink:href="#SVGID_1_"  style="overflow:visible;"/>
		</clipPath>
		<g class="st8">
			<path class="st0" d="M393.2,314.3c0,0-5.8,0-5.2,0c2.1,2.4,5.2,11.7,5.2,11.7V314.3z"/>
			<path class="st0" d="M415.8,314.3c0,0,5.8,0,5.2,0c-2.1,2.4-5.2,11.7-5.2,11.7V314.3z"/>
			<path class="st0" d="M393.2,325.1h-8.7c-0.2,0-0.3,0.2-0.1,0.3l8.8,7.7L393.2,325.1L393.2,325.1z"/>
			<path class="st0" d="M415.8,325.1h8.7c0.2,0,0.3,0.2,0.1,0.3l-8.8,7.7L415.8,325.1L415.8,325.1z"/>
			<path class="st0" d="M415.8,350.6v-36.3h-22.6v36.3l0,0c2.2,3.5,6.4,5.9,11.3,5.9C409.4,356.4,413.6,354.1,415.8,350.6
				L415.8,350.6z"/>
			<path class="st3" d="M403.4,353h-1.5c-0.2,0-0.3-0.1-0.3-0.3v-2.9c0-0.2,0.1-0.3,0.3-0.3h1.5c0.2,0,0.3,0.1,0.3,0.3v2.9
				C403.7,352.8,403.5,353,403.4,353z"/>
			<path class="st3" d="M409,353h-1.5c-0.2,0-0.3-0.1-0.3-0.3v-2.9c0-0.2,0.1-0.3,0.3-0.3h1.5c0.2,0,0.3,0.1,0.3,0.3v2.9
				C409.3,352.8,409.2,353,409,353z"/>
			<path class="st7" d="M404.8,363.6l-3.9-8.6c0,0,3.3,0.1,4.3,0.1c1.1,0,4.1-0.1,4.1-0.1l-3.9,8.6
				C405.3,363.8,404.9,363.8,404.8,363.6z"/>
			<path class="st7" d="M412.8,309.5c-2.9,0-5.2,2.1-5.2,4.8H418C418,311.6,415.7,309.5,412.8,309.5z"/>
			<path class="st7" d="M397.9,309.5c-2.9,0-5.2,2.1-5.2,4.8h10.4C403.1,311.6,400.7,309.5,397.9,309.5z"/>
		</g>
	</g>
</g>
</svg>
