<?xml version="1.0" encoding="utf-8"?>
<!-- Generator: Adobe Illustrator 22.0.0, SVG Export Plug-In . SVG Version: 6.00 Build 0)  -->
<svg version="1.1" id="图层_1" xmlns="http://www.w3.org/2000/svg" xmlns:xlink="http://www.w3.org/1999/xlink" x="0px" y="0px"
	 viewBox="0 0 806.8 603" style="enable-background:new 0 0 806.8 603;" xml:space="preserve">
<style type="text/css">
	.st0{fill:#41464B;}
	.st1{fill:#1890FF;}
	.st2{fill:#B5CED5;}
	.st3{fill:#FFFFFF;}
	.st4{fill:#DDDDDD;}
	.st5{fill:#D3DCE1;}
	.st6{fill:#D2E1E6;}
	.st7{fill:#D09E2B;}
	.st8{clip-path:url(#SVGID_2_);}
</style>
<g>
	<g>
		<path class="st0" d="M27.8,27.9v27.8H0V27.9H27.8z M0,139.1v-27.8h111.3v27.8H0z M27.8,27.9V0.1h111.3v27.8H27.8z M111.3,55.7
			v27.8H27.8V55.7H111.3z M139.1,111.3h-27.8V83.5h27.8V111.3z"/>
		<path class="st0" d="M194.8,111.3H167V27.8h27.8V0h83.5v27.8h27.8v83.5h-27.8v27.8h-83.5V111.3z M278.2,111.3V27.8h-83.5v83.5
			H278.2z"/>
		<path class="st0" d="M473,139.1h-27.8v-27.8h-27.8V83.5h-55.6v55.6H334V0h111.3v27.8h27.8v27.8h-27.8v55.6h27.8L473,139.1
			L473,139.1z M445.2,55.7V27.9h-83.5v27.8H445.2z"/>
		<path class="st0" d="M639.9,139.1h-27.8v-27.8h-27.8V83.5h-55.6v55.6h-27.8V0h111.3v27.8H640v27.8h-27.8v55.6H640L639.9,139.1
			L639.9,139.1z M612.1,55.7V27.9h-83.5v27.8H612.1z"/>
		<path class="st0" d="M695.6,55.7h-27.8V0.1h27.8V55.7z M723.4,55.7v27.8h-27.8V55.7H723.4z M723.4,83.5h27.8v55.6h-27.8V83.5z
			 M751.2,55.7H779v27.8h-27.8V55.7z M806.8,0v55.6H779V0H806.8z"/>
	</g>
</g>
<path class="st1" d="M441.7,424H439c-1.9,0-3.5-1.6-3.5-3.5v-66.7c0-1.9,1.6-3.5,3.5-3.5h2.7c1.9,0,3.5,1.6,3.5,3.5v66.7
	C445.2,422.4,443.6,424,441.7,424z"/>
<path class="st1" d="M464.5,389.3h-2c-1.5,0-2.7-1.2-2.7-2.7v-25c0-1.5,1.2-2.7,2.7-2.7h2c1.5,0,2.7,1.2,2.7,2.7v25.1
	C467.2,388.1,466,389.3,464.5,389.3z"/>
<path class="st1" d="M456.4,520.3h-0.7c-0.5,0-1-0.4-1-1v-36.6c0-0.5,0.4-1,1-1h0.7c0.5,0,1,0.4,1,1v36.6
	C457.4,519.9,456.9,520.3,456.4,520.3z"/>
<path class="st1" d="M469.4,509.7h-0.7c-0.5,0-1-0.4-1-1V489c0-0.5,0.4-1,1-1h0.7c0.5,0,1,0.4,1,1v19.7
	C470.4,509.3,469.9,509.7,469.4,509.7z"/>
<path class="st2" d="M677,151.1l-70,62.2l-41.9-77.9L550,115.6l-4.6,1.2l-1.8-8.1l-9.9,19.8l-6-9.2l-7.8,8.3l-2.5-2.5l-41.3,89.2
	l-50.7-52.1l-45.2,48.4l-34.5-65.3l-4.2,2.9l-6.9-14.1l-6.9,28.1l-9.2-11.5l-4.8,13.8l-5.3-6.9l-5,1.5l-40.6,71.3l-41-48.4
	l-26.3,29.5l-22.9-62.9l-12.2-7.9l-2.6,10.9l-11.6-16.4l-13.6,6.9L50.1,282.3c0,0,28.6-4.2,218.7-22.9
	C458.9,240.7,760.1,281,760.1,281L677,151.1z"/>
<ellipse class="st3" cx="406.3" cy="290.1" rx="362.9" ry="39.4"/>
<path class="st4" d="M406.3,329.5c-200.4,0-362.9-17.6-362.9-39.4v47c0,19.5,162.5,32.6,362.9,32.6s362.9-13,362.9-32.4v-47.2
	C769.1,311.8,606.7,329.5,406.3,329.5z"/>
<path class="st5" d="M396.6,296.4c0,0-16.3-7.4-1-15.2c11.8-6,31-8.7,62.1-7s44.3,7.8,49.8,10.2c6.5,2.9,8.1,8.3,3.1,11.4
	C504.1,299.9,396.6,296.4,396.6,296.4z"/>
<path class="st1" d="M511.3,293.7c0,7.6-26.6,11.3-59.4,11.3s-59.4-6.1-59.4-13.7s26.6-13.7,59.4-13.7S511.3,286.2,511.3,293.7z"/>
<polygon class="st3" points="313.7,164.5 318.5,150.7 327.7,162.2 334.6,134.1 341.5,148.1 345.7,145.2 329.1,113.8 303.3,159 
	308.4,157.6 "/>
<polygon class="st3" points="359.5,167.5 369.6,176.2 379.8,159.9 381.4,164.5 384.4,163.3 388.5,169.3 395,161.4 378.9,129.9 
	353,164.5 357.7,170.5 "/>
<polygon class="st3" points="527.7,119.3 533.7,128.5 543.6,108.7 545.4,116.8 550,115.6 565.1,135.4 536.9,82.9 517.4,125.1 
	519.9,127.6 "/>
<polygon class="st3" points="623.5,198.4 628.6,188.5 639.4,188.5 645.6,182.2 651.6,200.4 657.6,192.6 674.7,195.3 643.8,149.3 
	607.1,195.2 618.2,192.4 "/>
<polygon class="st3" points="476.8,164.5 486.8,149.3 495.7,151.1 504.6,147.4 517.4,151.1 535.6,168.1 495.9,107.4 457.3,160.2 
	473.7,156.3 "/>
<path class="st6" d="M674.7,195.3l-17-2.7l-6,7.8l-6-18.2l-6.2,6.2h-10.8l-5.1,9.9l-5.3-6l-11.1,2.8l-29.6,37L535.7,168l-18.2-17
	l-12.7-3.7l-9,3.7l-8.9-1.8l-10,15.2l-3.1-8.2l-16.3,3.9l-37,50.8l-25.4-49.6l-6.4,7.9l-4.1-6l-3,1.2l-1.6-4.6l-10.1,16.4l-10.1-8.8
	l-1.9,3l-4.6-6l-28.6,38.2L280,168l-79.7,82.5l-41-73.7L89.1,277.9c3,0,5.9,0.1,8.9,0.1c70.8-7.7,171.6-12.5,283.4-12.5
	c153.7,0,286.6,9.1,349.4,22.2c4.2,0.1,6.3,0.1,6.3,0.1L674.7,195.3z"/>
<path class="st3" d="M425.9,298.8h-11.4c-0.9,0-1.7-0.7-1.7-1.7l0,0c0-0.9,0.7-1.7,1.7-1.7h11.4c0.9,0,1.7,0.7,1.7,1.7l0,0
	C427.6,298.1,426.9,298.8,425.9,298.8z"/>
<path class="st3" d="M461.9,302.7h-4.6c-0.5,0-1-0.4-1-1l0,0c0-0.5,0.4-1,1-1h4.6c0.5,0,1,0.4,1,1l0,0
	C462.8,302.3,462.4,302.7,461.9,302.7z"/>
<path class="st3" d="M501.7,294.5h-21.6c-0.9,0-1.7-0.7-1.7-1.7l0,0c0-0.9,0.7-1.7,1.7-1.7h21.6c0.9,0,1.7,0.7,1.7,1.7l0,0
	C503.4,293.8,502.7,294.5,501.7,294.5z"/>
<path class="st3" d="M485.2,287.1h-20.8c-0.4,0-0.8-0.4-0.8-0.8l0,0c0-0.4,0.4-0.8,0.8-0.8h20.8c0.4,0,0.8,0.4,0.8,0.8l0,0
	C486,286.7,485.6,287.1,485.2,287.1z"/>
<circle class="st1" cx="494.9" cy="224.4" r="22.8"/>
<circle class="st1" cx="481.6" cy="255.8" r="7.1"/>
<g>
	<path class="st0" d="M447.7,461c0,0-5.8,0-5.2,0c2.1-2.4,5.2-11.7,5.2-11.7V461z"/>
	<path class="st0" d="M470.3,461c0,0,5.8,0,5.2,0c-2.1-2.4-5.2-11.7-5.2-11.7V461z"/>
	<path class="st0" d="M447.7,450.2H439c-0.2,0-0.3-0.2-0.1-0.3l8.8-7.7V450.2z"/>
	<path class="st0" d="M470.3,450.2h8.7c0.2,0,0.3-0.2,0.1-0.3l-8.8-7.7V450.2z"/>
	<path class="st0" d="M470.3,424.8v36.3h-22.6v-36.3l0,0c2.2-3.5,6.4-5.9,11.3-5.9C463.9,418.9,468.1,421.3,470.3,424.8L470.3,424.8
		z"/>
	<path class="st3" d="M457.9,422.4h-1.5c-0.2,0-0.3,0.1-0.3,0.3v2.9c0,0.2,0.1,0.3,0.3,0.3h1.5c0.2,0,0.3-0.1,0.3-0.3v-2.9
		C458.2,422.5,458.1,422.4,457.9,422.4z"/>
	<path class="st3" d="M463.5,422.4H462c-0.2,0-0.3,0.1-0.3,0.3v2.9c0,0.2,0.1,0.3,0.3,0.3h1.5c0.2,0,0.3-0.1,0.3-0.3v-2.9
		C463.8,422.5,463.7,422.4,463.5,422.4z"/>
	<path class="st7" d="M459.3,411.7l-3.9,8.6c0,0,3.3-0.1,4.3-0.1s4.1,0.1,4.1,0.1l-3.9-8.6C459.8,411.5,459.4,411.5,459.3,411.7z"/>
	<path class="st7" d="M467.3,465.8c-2.9,0-5.2-2.1-5.2-4.8h10.4C472.5,463.7,470.2,465.8,467.3,465.8z"/>
	<path class="st7" d="M452.4,465.8c-2.9,0-5.2-2.1-5.2-4.8h10.4C457.6,463.7,455.3,465.8,452.4,465.8z"/>
</g>
<g>
	<path class="st0" d="M479.6,548.6c0,0-5.8,0-5.2,0c2.1-2.4,5.2-11.7,5.2-11.7V548.6z"/>
	<path class="st0" d="M502.2,548.6c0,0,5.8,0,5.2,0c-2.1-2.4-5.2-11.7-5.2-11.7V548.6z"/>
	<path class="st0" d="M479.6,537.7h-8.7c-0.2,0-0.3-0.2-0.1-0.3l8.8-7.7V537.7z"/>
	<path class="st0" d="M502.2,537.7h8.7c0.2,0,0.3-0.2,0.1-0.3l-8.8-7.7V537.7z"/>
	<path class="st0" d="M502.2,512.3v36.3h-22.6v-36.3l0,0c2.2-3.5,6.4-5.9,11.3-5.9C495.8,506.4,500.1,508.8,502.2,512.3L502.2,512.3
		z"/>
	<path class="st3" d="M489.8,509.9h-1.5c-0.2,0-0.3,0.1-0.3,0.3v2.9c0,0.2,0.1,0.3,0.3,0.3h1.5c0.2,0,0.3-0.1,0.3-0.3v-2.9
		C490.1,510,490,509.9,489.8,509.9z"/>
	<path class="st3" d="M495.4,509.9h-1.5c-0.2,0-0.3,0.1-0.3,0.3v2.9c0,0.2,0.1,0.3,0.3,0.3h1.5c0.2,0,0.3-0.1,0.3-0.3v-2.9
		C495.7,510,495.6,509.9,495.4,509.9z"/>
	<path class="st7" d="M491.2,499.2l-3.9,8.6c0,0,3.3-0.1,4.3-0.1s4.1,0.1,4.1,0.1l-3.9-8.6C491.7,499,491.4,499,491.2,499.2z"/>
	<path class="st7" d="M499.3,553.3c-2.9,0-5.2-2.1-5.2-4.8h10.4C504.4,551.2,502.1,553.3,499.3,553.3z"/>
	<path class="st7" d="M484.3,553.3c-2.9,0-5.2-2.1-5.2-4.8h10.4C489.5,551.2,487.2,553.3,484.3,553.3z"/>
</g>
<g>
	<path class="st0" d="M431.9,598.3c0,0-5.8,0-5.2,0c2.1-2.4,5.2-11.7,5.2-11.7V598.3z"/>
	<path class="st0" d="M454.5,598.3c0,0,5.8,0,5.2,0c-2.1-2.4-5.2-11.7-5.2-11.7V598.3z"/>
	<path class="st0" d="M431.9,587.4h-8.7c-0.2,0-0.3-0.2-0.1-0.3l8.8-7.7V587.4z"/>
	<path class="st0" d="M454.5,587.4h8.7c0.2,0,0.3-0.2,0.1-0.3l-8.8-7.7V587.4z"/>
	<path class="st0" d="M454.5,562v36.3h-22.6V562l0,0c2.2-3.5,6.4-5.9,11.3-5.9C448.1,556.1,452.4,558.5,454.5,562L454.5,562z"/>
	<path class="st3" d="M442.1,559.6h-1.5c-0.2,0-0.3,0.1-0.3,0.3v2.9c0,0.2,0.1,0.3,0.3,0.3h1.5c0.2,0,0.3-0.1,0.3-0.3v-2.9
		C442.4,559.7,442.3,559.6,442.1,559.6z"/>
	<path class="st3" d="M447.8,559.6h-1.5c-0.2,0-0.3,0.1-0.3,0.3v2.9c0,0.2,0.1,0.3,0.3,0.3h1.5c0.2,0,0.3-0.1,0.3-0.3v-2.9
		C448,559.7,447.9,559.6,447.8,559.6z"/>
	<path class="st7" d="M443.6,548.9l-3.9,8.6c0,0,3.3-0.1,4.3-0.1s4.1,0.1,4.1,0.1l-3.9-8.6C444,548.7,443.7,548.7,443.6,548.9z"/>
	<path class="st7" d="M451.6,603c-2.9,0-5.2-2.1-5.2-4.8h10.4C456.7,600.9,454.4,603,451.6,603z"/>
	<path class="st7" d="M436.6,603c-2.9,0-5.2-2.1-5.2-4.8h10.4C441.8,600.9,439.5,603,436.6,603z"/>
</g>
<g>
	<g>
		<defs>
			<path id="SVGID_1_" d="M510.8,274.7c0,7.6-26,21.9-58.9,21.9s-60-16.7-60-24.3s27.9-21.3,60.8-21.3S510.8,267.2,510.8,274.7z"/>
		</defs>
		<clipPath id="SVGID_2_">
			<use xlink:href="#SVGID_1_"  style="overflow:visible;"/>
		</clipPath>
		<g class="st8">
			<path class="st0" d="M436.6,302.2c0,0-5.8,0-5.2,0c2.1-2.4,5.2-11.7,5.2-11.7V302.2z"/>
			<path class="st0" d="M459.2,302.2c0,0,5.8,0,5.2,0c-2.1-2.4-5.2-11.7-5.2-11.7V302.2z"/>
			<path class="st0" d="M436.6,291.4h-8.7c-0.2,0-0.3-0.2-0.1-0.3l8.8-7.7V291.4z"/>
			<path class="st0" d="M459.2,291.4h8.7c0.2,0,0.3-0.2,0.1-0.3l-8.8-7.7V291.4z"/>
			<path class="st0" d="M459.2,265.9v36.3h-22.6v-36.3l0,0c2.2-3.5,6.4-5.9,11.3-5.9C452.8,260,457,262.4,459.2,265.9L459.2,265.9z"
				/>
			<path class="st3" d="M446.8,263.5h-1.5c-0.2,0-0.3,0.1-0.3,0.3v2.9c0,0.2,0.1,0.3,0.3,0.3h1.5c0.2,0,0.3-0.1,0.3-0.3v-2.9
				C447.1,263.6,446.9,263.5,446.8,263.5z"/>
			<path class="st3" d="M452.4,263.5h-1.5c-0.2,0-0.3,0.1-0.3,0.3v2.9c0,0.2,0.1,0.3,0.3,0.3h1.5c0.2,0,0.3-0.1,0.3-0.3v-2.9
				C452.7,263.6,452.6,263.5,452.4,263.5z"/>
			<path class="st7" d="M448.2,252.9l-3.9,8.6c0,0,3.3-0.1,4.3-0.1s4.1,0.1,4.1,0.1l-3.9-8.6C448.7,252.6,448.3,252.6,448.2,252.9z"
				/>
			<path class="st7" d="M456.2,307c-2.9,0-5.2-2.1-5.2-4.8h10.4C461.4,304.8,459.1,307,456.2,307z"/>
			<path class="st7" d="M441.3,307c-2.9,0-5.2-2.1-5.2-4.8h10.4C446.5,304.8,444.1,307,441.3,307z"/>
		</g>
	</g>
</g>
<g id="箭头_25">
	<g>
		<polygon class="st3" points="496.8,237.7 496.8,224.3 502.6,224.3 494.9,211 487.3,224.3 493.1,224.3 493.1,237.7 		"/>
	</g>
</g>
</svg>
